<svg width="24" height="24" viewBox="0 0 24 24" fill="none" xmlns="http://www.w3.org/2000/svg">
<g clip-path="url(#clip0_1_6)">
<path d="M12.15 21L21.75 10.2C22.65 9.15 22.65 7.5 21.6 6.45L17.55 2.4C17.1 1.8 16.35 1.5 15.6 1.5H12.9C12.15 1.5 11.4 1.8 10.8 2.4L0.750015 13.8C-0.149985 14.85 -0.149985 16.65 0.900015 17.55L4.95001 21.6C5.40001 22.2 6.15001 22.5 6.90001 22.5H24V21H12.15ZM10.2 20.85L6.15001 16.8C5.55001 16.2 5.55001 15.45 6.15001 14.85L11.25 9H9.75001L5.25001 13.95C4.35001 15 4.35001 16.5 5.40001 17.55L8.85001 21H6.90001C6.60001 21 6.30001 20.85 6.00001 20.7L1.80001 16.5C1.35001 16.05 1.35001 15.3 1.80001 14.85L7.05001 9H9.75001L15 3H16.5L11.25 9L15.9 14.55L10.65 20.55C10.5 20.7 10.35 20.7 10.2 20.85Z" fill="white"/>
</g>
<defs>
<clipPath id="clip0_1_6">
<rect width="24" height="24" fill="white"/>
</clipPath>
</defs>
</svg>
