<svg width="24" height="24" viewBox="0 0 24 24" fill="none" xmlns="http://www.w3.org/2000/svg">
<path d="M16.9924 12.3866L17.2736 12.0754C17.7656 11.5633 17.7857 10.9603 17.2633 10.4383L16.962 10.1469C18.4989 8.77071 20.2063 8.58 21.261 7.50514C22.7576 5.99828 22.2656 3.88886 21.2211 2.83414C20.1763 1.76957 18.087 1.31743 16.5501 2.79386C15.4654 3.83871 15.2846 5.55643 13.9084 7.09328L13.617 6.792C13.095 6.26914 12.492 6.28971 11.9799 6.78171L11.6687 7.06286C11.0559 7.65557 11.1664 8.178 11.6987 8.71028L12.1204 9.13243L4.53686 16.7259C1.43315 19.83 2.92972 19.3479 1.24243 21.7286L2.136 22.683C4.44643 21.0056 4.13529 22.653 7.27886 19.5086L14.913 11.925L15.345 12.357C15.8773 12.8893 16.3993 12.9999 16.992 12.387M11.9897 12.1059C11.6177 11.7043 11.6983 11.3426 12.09 10.9307L12.9943 10.0067L14.0786 11.091L13.1443 12.0154C12.7929 12.3669 12.3309 12.4774 11.9897 12.1059Z" fill="white"/>
</svg>
