<svg width="24" height="24" viewBox="0 0 24 24" fill="none" xmlns="http://www.w3.org/2000/svg">
<path d="M12.593 23.258L12.582 23.26L12.511 23.295L12.491 23.299L12.477 23.295L12.406 23.26C12.3954 23.2567 12.3874 23.2583 12.382 23.265L12.378 23.275L12.361 23.703L12.366 23.723L12.376 23.736L12.48 23.81L12.495 23.814L12.507 23.81L12.611 23.736L12.623 23.72L12.627 23.703L12.61 23.276C12.6074 23.2653 12.6017 23.2593 12.593 23.258ZM12.858 23.145L12.845 23.147L12.66 23.24L12.65 23.25L12.647 23.261L12.665 23.691L12.67 23.703L12.678 23.71L12.879 23.803C12.8917 23.8063 12.9014 23.8037 12.908 23.795L12.912 23.781L12.878 23.167C12.8747 23.155 12.868 23.1477 12.858 23.145ZM12.143 23.147C12.1386 23.1443 12.1333 23.1435 12.1283 23.1446C12.1233 23.1457 12.1189 23.1487 12.116 23.153L12.11 23.167L12.076 23.781C12.0767 23.793 12.0824 23.801 12.093 23.805L12.108 23.803L12.309 23.71L12.319 23.702L12.323 23.691L12.34 23.261L12.337 23.249L12.327 23.239L12.143 23.147Z" fill="white"/>
<path d="M14.295 4.98L19.019 9.705C19.2958 9.98174 19.4853 10.3336 19.5641 10.717C19.6428 11.1005 19.6073 11.4986 19.462 11.862L17.097 17.775C16.9643 18.106 16.7455 18.3955 16.4633 18.6135C16.1811 18.8316 15.8458 18.9702 15.492 19.015L10.413 19.65C10.2823 19.6653 10.1457 19.684 10.003 19.706L9.559 19.778L9.327 19.82L8.604 19.96L8.109 20.065L7.364 20.233L6.409 20.461L4.857 20.857L4.211 21.031C4.04798 21.0758 3.87631 21.079 3.71174 21.0403C3.54716 21.0015 3.39495 20.9221 3.26905 20.8092C3.14316 20.6963 3.04761 20.5537 2.99117 20.3943C2.93472 20.2349 2.9192 20.0639 2.946 19.897L2.98 19.751L3.275 18.639L3.539 17.591L3.767 16.636L3.934 15.891L4.039 15.395L4.18 14.673L4.26 14.216L4.324 13.788L4.984 8.508C5.02892 8.1541 5.16768 7.81867 5.38589 7.53646C5.60409 7.25425 5.89381 7.03554 6.225 6.903L12.138 4.538C12.5014 4.39266 12.8995 4.35717 13.283 4.43591C13.6664 4.51466 14.0183 4.70318 14.295 4.98ZM10.585 10.585C10.3324 10.8378 10.1521 11.1537 10.0629 11.4998C9.97375 11.8459 9.97896 12.2096 10.078 12.553C10.0051 12.5957 9.9379 12.6474 9.87801 12.707L5.82 16.765C5.79341 16.792 5.77503 16.826 5.767 16.863L5.678 17.248L5.5 17.991L5.414 18.342C5.4052 18.3757 5.40538 18.4112 5.41452 18.4449C5.42366 18.4785 5.44144 18.5092 5.46611 18.5339C5.49077 18.5586 5.52146 18.5763 5.55512 18.5855C5.58878 18.5946 5.62425 18.5948 5.658 18.586L6.375 18.411L7.138 18.233C7.17479 18.2245 7.20842 18.2058 7.235 18.179L11.293 14.121C11.3525 14.0614 11.4043 13.9945 11.447 13.922C11.7859 14.0194 12.1444 14.0255 12.4864 13.9397C12.8284 13.8539 13.1416 13.6792 13.3943 13.4333C13.647 13.1875 13.8302 12.8792 13.9254 12.5397C14.0205 12.2002 14.0242 11.8416 13.9362 11.5002C13.8481 11.1588 13.6713 10.8467 13.4238 10.5957C13.1762 10.3446 12.8667 10.1634 12.5266 10.0705C12.1865 9.97763 11.8279 9.97628 11.4871 10.0666C11.1463 10.157 10.8354 10.3358 10.586 10.585H10.585ZM15.243 3.101C15.4151 2.92867 15.6441 2.82506 15.8871 2.80959C16.1302 2.79413 16.3705 2.86787 16.563 3.017L16.657 3.101L20.9 7.343C21.0813 7.52254 21.187 7.76457 21.1957 8.01954C21.2043 8.27452 21.1152 8.52316 20.9465 8.71458C20.7779 8.90599 20.5424 9.0257 20.2884 9.0492C20.0343 9.0727 19.7809 8.99822 19.58 8.841L19.485 8.757L15.243 4.515C15.0555 4.32747 14.9502 4.07316 14.9502 3.808C14.9502 3.54283 15.0555 3.28852 15.243 3.101Z" fill="white"/>
</svg>
