<svg width="24" height="24" viewBox="0 0 24 24" fill="none" xmlns="http://www.w3.org/2000/svg">
<path d="M18.192 9.612L16.84 8.689C16.7325 8.61549 16.6115 8.56412 16.484 8.53789C16.3565 8.51166 16.2251 8.5111 16.0973 8.53624C15.9696 8.56137 15.8482 8.6117 15.7401 8.68429C15.6321 8.75688 15.5395 8.85026 15.468 8.959C15.322 9.17918 15.2681 9.4478 15.3178 9.70727C15.3675 9.96674 15.5169 10.1964 15.734 10.347L19.011 12.584C19.1184 12.6575 19.2394 12.7089 19.3669 12.7351C19.4944 12.7613 19.6259 12.7619 19.7536 12.7368C19.8813 12.7116 20.0028 12.6613 20.1108 12.5887C20.2189 12.5161 20.3114 12.4227 20.383 12.314L22.593 8.998C22.7401 8.77797 22.7946 8.50889 22.7448 8.24895C22.6951 7.98901 22.5449 7.75912 22.327 7.609C22.2195 7.53549 22.0985 7.48412 21.971 7.45789C21.8435 7.43166 21.7121 7.4311 21.5843 7.45624C21.4566 7.48137 21.3352 7.5317 21.2271 7.60429C21.1191 7.67688 21.0265 7.77026 20.955 7.879L20.116 9.138C18.9 5.01 15.12 2 10.645 2C5.18698 2 0.762978 6.477 0.762978 12C0.762978 17.523 5.18698 22 10.645 22C10.7755 21.9992 10.9046 21.9727 11.0249 21.922C11.1452 21.8714 11.2543 21.7975 11.3461 21.7046C11.4378 21.6118 11.5104 21.5017 11.5596 21.3808C11.6088 21.2599 11.6338 21.1305 11.633 21C11.633 20.448 11.19 20 10.645 20C6.27898 20 2.73898 16.418 2.73898 12C2.73898 7.582 6.27898 4 10.645 4C14.189 4 17.188 6.36 18.192 9.612Z" fill="white"/>
</svg>
