<svg width="24" height="24" viewBox="0 0 24 24" fill="none" xmlns="http://www.w3.org/2000/svg">
<path d="M5.80802 9.612L7.16002 8.689C7.26746 8.61549 7.38846 8.56412 7.51597 8.53789C7.64347 8.51166 7.77493 8.5111 7.90265 8.53624C8.03038 8.56137 8.15182 8.6117 8.25988 8.68429C8.36794 8.75688 8.46045 8.85026 8.53202 8.959C8.67803 9.17918 8.73195 9.4478 8.68222 9.70727C8.6325 9.96674 8.48309 10.1964 8.26602 10.347L4.98902 12.584C4.88159 12.6575 4.76059 12.7089 4.63308 12.7351C4.50557 12.7613 4.37412 12.7619 4.24639 12.7368C4.11867 12.7116 3.99723 12.6613 3.88917 12.5887C3.78111 12.5161 3.68859 12.4227 3.61702 12.314L1.40702 8.998C1.25993 8.77797 1.20538 8.50889 1.25516 8.24895C1.30494 7.98901 1.45505 7.75912 1.67302 7.609C1.78046 7.53549 1.90146 7.48412 2.02897 7.45789C2.15647 7.43166 2.28793 7.4311 2.41565 7.45624C2.54338 7.48137 2.66482 7.5317 2.77288 7.60429C2.88094 7.67688 2.97345 7.77026 3.04502 7.879L3.88402 9.138C5.10002 5.01 8.88002 2 13.355 2C18.813 2 23.237 6.477 23.237 12C23.237 17.523 18.813 22 13.355 22C13.2245 21.9992 13.0954 21.9727 12.9751 21.922C12.8548 21.8714 12.7457 21.7975 12.6539 21.7046C12.5622 21.6118 12.4896 21.5017 12.4404 21.3808C12.3912 21.2599 12.3662 21.1305 12.367 21C12.367 20.448 12.81 20 13.355 20C17.721 20 21.261 16.418 21.261 12C21.261 7.582 17.721 4 13.355 4C9.81102 4 6.81202 6.36 5.80802 9.612Z" fill="white"/>
</svg>
